<svg color="#B91C1C" viewBox="0 0 540 960" width="100%" height="100%" xmlns="http://www.w3.org/2000/svg" xmlns:xlink="http://www.w3.org/1999/xlink" version="1.1"><g><g transform="translate(514 314)"><path d="M9 -3C10 0.1 8 4.2 4.8 6.5C1.5 8.8 -2.9 9.5 -5.7 7.5C-8.5 5.6 -9.6 1.1 -8.4 -2.4C-7.1 -5.8 -3.6 -8.1 0.2 -8.1C4 -8.2 8 -6.1 9 -3Z" fill="currentColor"></path></g><g transform="translate(459 332)"><path d="M7.6 -2.5C8.5 0.6 7.2 4.4 4.6 6.3C1.9 8.3 -2.2 8.4 -4.6 6.6C-7 4.8 -7.9 1 -6.8 -2.2C-5.8 -5.4 -2.9 -8 0.2 -8.1C3.3 -8.2 6.6 -5.7 7.6 -2.5Z" fill="currentColor"></path></g><g transform="translate(242 476)"><path d="M5.5 -1.9C6.2 0.4 5.3 3.2 3.3 4.7C1.3 6.2 -1.8 6.4 -3.6 5C-5.5 3.7 -6.1 0.7 -5.3 -1.7C-4.5 -4.2 -2.3 -6.1 0.1 -6.2C2.4 -6.2 4.8 -4.3 5.5 -1.9Z" fill="currentColor"></path></g><g transform="translate(491 100)"><path d="M6 -1.9C6.9 0.8 6.1 4 4 5.5C2 7 -1.3 6.7 -3.5 5.1C-5.7 3.4 -6.8 0.4 -6 -2.1C-5.2 -4.6 -2.6 -6.6 0 -6.6C2.6 -6.6 5.1 -4.5 6 -1.9Z" fill="currentColor"></path></g><g transform="translate(455 673)"><path d="M6.4 -2.2C7.1 0.3 5.9 3.3 3.6 4.9C1.4 6.5 -1.9 6.8 -3.9 5.3C-5.9 3.8 -6.8 0.7 -6 -2C-5.1 -4.6 -2.6 -6.7 0.1 -6.7C2.8 -6.7 5.6 -4.7 6.4 -2.2Z" fill="currentColor"></path></g><g transform="translate(397 216)"><path d="M0.7 -0.2C0.8 0.1 0.7 0.4 0.5 0.6C0.2 0.8 -0.2 0.7 -0.4 0.6C-0.7 0.4 -0.8 0 -0.7 -0.2C-0.6 -0.5 -0.3 -0.7 0 -0.7C0.3 -0.7 0.6 -0.5 0.7 -0.2Z" fill="currentColor"></path></g><g transform="translate(504 73)"><path d="M3.5 -1.1C3.9 0.1 3.1 1.7 1.9 2.5C0.7 3.4 -0.9 3.4 -2 2.7C-3.1 1.9 -3.7 0.3 -3.2 -1C-2.8 -2.2 -1.4 -3 0.1 -3C1.6 -3.1 3.1 -2.3 3.5 -1.1Z" fill="currentColor"></path></g><g transform="translate(69 698)"><path d="M5.2 -1.6C6 0.7 5.3 3.5 3.5 4.9C1.6 6.2 -1.3 6.1 -3.1 4.7C-4.9 3.3 -5.4 0.7 -4.7 -1.6C-4 -3.8 -2 -5.7 0.1 -5.7C2.2 -5.8 4.5 -4 5.2 -1.6Z" fill="currentColor"></path></g><g transform="translate(366 70)"><path d="M0.7 -0.2C0.8 0 0.6 0.4 0.4 0.5C0.2 0.7 -0.2 0.7 -0.4 0.5C-0.6 0.4 -0.8 0 -0.7 -0.2C-0.6 -0.5 -0.3 -0.6 0 -0.6C0.3 -0.6 0.6 -0.5 0.7 -0.2Z" fill="currentColor"></path></g><g transform="translate(37 716)"><path d="M3.2 -1.1C3.7 0.3 3.2 2 2.1 2.8C1 3.6 -0.7 3.5 -1.8 2.6C-3 1.8 -3.5 0.2 -3.1 -1.1C-2.7 -2.5 -1.3 -3.7 0 -3.7C1.4 -3.7 2.8 -2.5 3.2 -1.1Z" fill="currentColor"></path></g><g transform="translate(198 874)"><path d="M4.6 -1.3C5.2 0.5 4.5 2.8 3 3.9C1.5 4.9 -0.8 4.6 -2.4 3.4C-4.1 2.2 -5 0.1 -4.5 -1.5C-4 -3.1 -2 -4.2 0 -4.2C2 -4.2 3.9 -3.1 4.6 -1.3Z" fill="currentColor"></path></g><g transform="translate(122 571)"><path d="M5.1 -1.5C5.7 0.4 4.8 2.9 3 4.2C1.2 5.5 -1.5 5.7 -3.3 4.4C-5.2 3.1 -6.2 0.4 -5.5 -1.6C-4.8 -3.6 -2.4 -4.8 -0.1 -4.8C2.2 -4.8 4.4 -3.5 5.1 -1.5Z" fill="currentColor"></path></g><g transform="translate(415 898)"><path d="M3.5 -1C4 0.6 3.7 2.7 2.6 3.5C1.4 4.4 -0.6 4 -2 3C-3.4 1.9 -4.1 0.2 -3.6 -1.3C-3.2 -2.8 -1.6 -4.1 -0.1 -4C1.4 -4 2.9 -2.7 3.5 -1Z" fill="currentColor"></path></g><g transform="translate(334 252)"><path d="M5.1 -1.6C5.8 0.5 5.1 3.2 3.2 4.6C1.4 5.9 -1.5 6 -3.3 4.6C-5.1 3.3 -5.9 0.6 -5.1 -1.6C-4.4 -3.7 -2.2 -5.3 0 -5.3C2.2 -5.3 4.4 -3.7 5.1 -1.6Z" fill="currentColor"></path></g><g transform="translate(464 391)"><path d="M3.1 -1C3.6 0.5 3.2 2.2 2.1 3C1.1 3.8 -0.7 3.6 -1.8 2.7C-2.9 1.9 -3.4 0.3 -3 -1.1C-2.5 -2.5 -1.3 -3.7 0 -3.7C1.3 -3.8 2.6 -2.5 3.1 -1Z" fill="currentColor"></path></g><g transform="translate(422 79)"></g><g transform="translate(477 307)"><path d="M5.9 -1.7C6.8 0.7 6 3.9 3.9 5.4C1.8 6.9 -1.5 6.8 -3.6 5.2C-5.8 3.6 -6.8 0.5 -6 -1.8C-5.2 -4.1 -2.6 -5.6 0 -5.6C2.5 -5.6 5.1 -4 5.9 -1.7Z" fill="currentColor"></path></g><g transform="translate(177 437)"><path d="M0.6 -0.2C0.7 0.1 0.6 0.4 0.4 0.5C0.1 0.7 -0.2 0.7 -0.4 0.5C-0.7 0.4 -0.8 0 -0.7 -0.2C-0.6 -0.5 -0.3 -0.7 0 -0.7C0.3 -0.7 0.5 -0.5 0.6 -0.2Z" fill="currentColor"></path></g><g transform="translate(515 704)"><path d="M2.4 -0.7C2.7 0.4 2.5 1.8 1.7 2.4C0.9 3 -0.6 2.9 -1.6 2.2C-2.5 1.5 -3 0.2 -2.7 -0.9C-2.3 -1.9 -1.2 -2.7 -0.1 -2.7C1 -2.7 2 -1.8 2.4 -0.7Z" fill="currentColor"></path></g><g transform="translate(70 941)"><path d="M0.6 -0.2C0.7 0.1 0.6 0.4 0.4 0.6C0.2 0.7 -0.2 0.7 -0.4 0.5C-0.6 0.4 -0.8 0 -0.7 -0.2C-0.6 -0.5 -0.3 -0.6 0 -0.6C0.3 -0.6 0.5 -0.4 0.6 -0.2Z" fill="currentColor"></path></g><g transform="translate(2 601)"><path d="M4 -1.3C4.5 0.2 3.8 2.2 2.4 3.1C1.1 4 -0.9 3.9 -2.1 3C-3.3 2.1 -3.8 0.4 -3.3 -1.1C-2.9 -2.6 -1.4 -3.9 0.2 -3.9C1.8 -4 3.5 -2.9 4 -1.3Z" fill="currentColor"></path></g></g></svg>
