<svg color="#7F1D1D" viewBox="0 0 540 960" width="100%" height="100%" xmlns="http://www.w3.org/2000/svg" xmlns:xlink="http://www.w3.org/1999/xlink" version="1.1"><g><g transform="translate(57 759)"><path d="M22.4 -17.7C28.3 -10.5 31.8 -1.2 31.2 9.2C30.5 19.7 25.5 31.2 17.5 34.4C9.4 37.6 -1.8 32.3 -9.5 26.2C-17.2 20 -21.3 12.9 -23.4 5C-25.6 -3 -25.7 -11.8 -21.4 -18.7C-17.2 -25.6 -8.6 -30.6 -0.2 -30.4C8.2 -30.3 16.5 -25 22.4 -17.7Z" fill="currentColor"></path></g><g transform="translate(294 359)"><path d="M2.5 -2.2C3 -1.4 3 -0.3 2.8 0.7C2.6 1.7 2.2 2.7 1.4 3.2C0.6 3.6 -0.5 3.6 -1.6 3.1C-2.7 2.7 -3.7 1.9 -3.7 1C-3.8 0.2 -2.9 -0.7 -2.1 -1.7C-1.4 -2.6 -0.7 -3.6 0.2 -3.7C1 -3.9 2 -3.1 2.5 -2.2Z" fill="currentColor"></path></g><g transform="translate(373 773)"><path d="M4.5 -3.6C5.6 -2.3 5.9 -0.4 5.4 1C4.9 2.4 3.5 3.4 2.2 3.8C0.8 4.2 -0.5 3.9 -1.4 3.3C-2.4 2.7 -3 1.8 -3.4 0.7C-3.7 -0.5 -3.8 -1.8 -3.2 -3C-2.6 -4.2 -1.3 -5.3 0.2 -5.5C1.7 -5.7 3.5 -4.9 4.5 -3.6Z" fill="currentColor"></path></g><g transform="translate(411 96)"><path d="M11 -10C13.5 -5.7 14.1 -1.1 13.2 3C12.3 7.2 9.7 11 5.7 13.7C1.7 16.3 -3.7 17.7 -7.7 15.8C-11.7 14 -14.1 8.9 -15.6 3.3C-17 -2.2 -17.4 -8.2 -14.7 -12.6C-11.9 -17 -5.9 -19.7 -0.8 -19.1C4.3 -18.4 8.5 -14.3 11 -10Z" fill="currentColor"></path></g><g transform="translate(401 667)"><path d="M17.1 -15.7C20.4 -9.5 20.1 -2.5 18.8 4.8C17.5 12 15.3 19.5 10.2 22.6C5 25.6 -2.9 24.1 -8.1 20.3C-13.3 16.5 -15.7 10.3 -17.1 3.9C-18.6 -2.5 -19.2 -9.1 -16.2 -15.3C-13.2 -21.4 -6.6 -27.1 0.2 -27.2C6.9 -27.3 13.8 -21.9 17.1 -15.7Z" fill="currentColor"></path></g><g transform="translate(449 433)"><path d="M14.4 -10.4C18.2 -6.6 20.7 -0.7 20.4 6.4C20.2 13.4 17.2 21.5 11.5 24.5C5.8 27.5 -2.7 25.4 -8.9 21.4C-15.1 17.3 -18.9 11.2 -21 4.2C-23.1 -2.9 -23.5 -10.9 -19.7 -14.7C-15.9 -18.4 -7.9 -17.8 -1.3 -16.8C5.3 -15.7 10.5 -14.1 14.4 -10.4Z" fill="currentColor"></path></g><g transform="translate(210 500)"><path d="M12.3 -10.3C16.4 -4.7 20.6 0.5 20 5.2C19.4 9.9 14.1 14.2 8 17.4C1.9 20.7 -5.1 22.9 -10.3 20.7C-15.6 18.5 -19 11.8 -18.9 6.1C-18.9 0.3 -15.3 -4.5 -11.6 -10C-7.8 -15.5 -3.9 -21.7 0.1 -21.8C4.1 -21.9 8.2 -15.8 12.3 -10.3Z" fill="currentColor"></path></g><g transform="translate(274 909)"><path d="M12.6 -11C15.8 -5.9 17.7 -0.7 17 4.5C16.3 9.8 13.1 15.1 8.3 17.4C3.6 19.8 -2.7 19.2 -9.1 16.9C-15.5 14.5 -22 10.5 -23.6 5C-25.1 -0.5 -21.8 -7.6 -17 -13C-12.2 -18.4 -6.1 -22.2 -0.7 -21.6C4.7 -21 9.3 -16.1 12.6 -11Z" fill="currentColor"></path></g><g transform="translate(396 898)"><path d="M25.8 -19.6C31.4 -13.6 32.5 -3 29.9 6.1C27.2 15.2 20.9 22.8 12.4 27.5C4 32.2 -6.7 34.1 -15.5 30.5C-24.2 26.9 -31.1 17.8 -32.9 8.1C-34.7 -1.7 -31.4 -12 -25 -18.2C-18.7 -24.4 -9.3 -26.5 0.4 -26.8C10.1 -27.2 20.2 -25.7 25.8 -19.6Z" fill="currentColor"></path></g><g transform="translate(63 316)"><path d="M16.2 -12.5C21.5 -6.3 26.6 0.5 26 7C25.3 13.6 19 19.9 11.7 22.8C4.5 25.7 -3.7 25.1 -9.2 21.5C-14.7 17.9 -17.5 11.3 -18.2 5.1C-18.8 -1 -17.1 -6.7 -13.7 -12.5C-10.3 -18.3 -5.2 -24.3 0.1 -24.5C5.4 -24.6 10.9 -18.8 16.2 -12.5Z" fill="currentColor"></path></g><g transform="translate(274 154)"><path d="M3.1 -2.5C3.6 -1.8 3.4 -0.5 3.1 0.6C2.7 1.6 2.2 2.6 1.3 3.1C0.5 3.6 -0.7 3.7 -1.8 3.3C-3 2.9 -4.1 2.1 -4.4 1C-4.6 -0.1 -4.1 -1.5 -3.2 -2.3C-2.3 -3.1 -1.2 -3.4 0.1 -3.5C1.3 -3.5 2.5 -3.3 3.1 -2.5Z" fill="currentColor"></path></g><g transform="translate(241 59)"><path d="M10.7 -8.6C12.8 -5.9 12.6 -1.6 11.9 3.2C11.2 8 10 13.2 6.8 15.2C3.5 17.2 -1.9 16.1 -6.7 13.8C-11.5 11.5 -15.8 8 -16.7 3.9C-17.6 -0.3 -15.1 -5.1 -11.7 -8.1C-8.3 -11.1 -4.2 -12.1 0.1 -12.2C4.3 -12.3 8.6 -11.3 10.7 -8.6Z" fill="currentColor"></path></g><g transform="translate(390 278)"><path d="M9.7 -7.6C12 -4.8 13 -0.8 11.9 2.3C10.9 5.5 7.9 7.8 4.9 8.7C1.8 9.7 -1.2 9.2 -4.4 8.1C-7.6 7 -11 5.1 -11.4 2.8C-11.8 0.4 -9.3 -2.5 -6.9 -5.3C-4.5 -8.2 -2.3 -11 0.7 -11.6C3.7 -12.2 7.3 -10.5 9.7 -7.6Z" fill="currentColor"></path></g><g transform="translate(522 318)"><path d="M15.9 -12.5C18.3 -9.7 16.2 -3.2 13.9 1.6C11.5 6.4 8.8 9.6 4.7 12.8C0.5 16 -5.1 19.2 -10.4 18C-15.6 16.8 -20.4 11.3 -21.2 5.5C-22 -0.3 -18.8 -6.4 -14.6 -9.6C-10.4 -12.8 -5.2 -13.3 0.8 -13.9C6.8 -14.5 13.5 -15.3 15.9 -12.5Z" fill="currentColor"></path></g><g transform="translate(48 589)"><path d="M3.9 -3.1C4.9 -1.9 5.4 -0.3 5 1.1C4.7 2.6 3.6 3.8 2.1 4.5C0.7 5.3 -1 5.5 -2.1 4.8C-3.2 4.2 -3.7 2.5 -3.8 1.1C-3.9 -0.3 -3.6 -1.5 -2.9 -2.6C-2.2 -3.7 -1.1 -4.7 0.2 -4.8C1.5 -5 2.9 -4.2 3.9 -3.1Z" fill="currentColor"></path></g></g></svg>
