<svg color="#991B1B" viewBox="0 0 540 960" width="100%" height="100%" xmlns="http://www.w3.org/2000/svg" xmlns:xlink="http://www.w3.org/1999/xlink" version="1.1"><g><g transform="translate(57 311)"><path d="M6.5 -5.1C7.9 -3.4 8.2 -0.7 7.7 1.9C7.3 4.5 6 7.1 4 7.9C2.1 8.7 -0.6 7.7 -2.5 6.3C-4.4 5 -5.6 3.3 -6.2 1.3C-6.8 -0.7 -6.7 -3 -5.5 -4.6C-4.4 -6.3 -2.2 -7.3 0.2 -7.5C2.5 -7.6 5.1 -6.8 6.5 -5.1Z" fill="currentColor"></path></g><g transform="translate(12 321)"><path d="M1.8 -1.3C2.4 -0.7 3 0.1 2.9 0.7C2.8 1.3 1.9 1.7 1.2 1.9C0.4 2.1 -0.3 2 -0.9 1.8C-1.5 1.5 -2 1 -2.2 0.5C-2.3 -0.1 -2 -0.7 -1.6 -1.3C-1.1 -1.9 -0.6 -2.5 0 -2.5C0.6 -2.5 1.2 -2 1.8 -1.3Z" fill="currentColor"></path></g><g transform="translate(219 34)"><path d="M0.5 -0.4C0.6 -0.3 0.7 0 0.7 0.2C0.6 0.4 0.5 0.6 0.3 0.7C0.1 0.8 -0.2 0.9 -0.4 0.8C-0.5 0.7 -0.7 0.4 -0.7 0.2C-0.8 -0.1 -0.8 -0.3 -0.6 -0.5C-0.5 -0.7 -0.2 -0.8 0 -0.8C0.2 -0.8 0.4 -0.6 0.5 -0.4Z" fill="currentColor"></path></g><g transform="translate(361 945)"><path d="M2.6 -2.3C3.4 -1.2 3.9 -0.1 3.7 0.8C3.5 1.7 2.5 2.4 1.5 2.7C0.6 3 -0.4 2.9 -1.5 2.6C-2.6 2.3 -3.8 1.7 -4.2 0.7C-4.6 -0.2 -4.1 -1.6 -3.3 -2.7C-2.5 -3.9 -1.2 -4.8 -0.1 -4.7C0.9 -4.5 1.9 -3.4 2.6 -2.3Z" fill="currentColor"></path></g><g transform="translate(70 868)"><path d="M1.1 -0.9C1.4 -0.5 1.6 0 1.6 0.4C1.5 0.8 1.2 1.3 0.7 1.5C0.3 1.7 -0.3 1.8 -0.8 1.6C-1.2 1.4 -1.5 0.9 -1.7 0.4C-1.8 -0.2 -1.8 -0.8 -1.5 -1.2C-1.1 -1.6 -0.6 -1.8 -0.1 -1.7C0.4 -1.6 0.8 -1.3 1.1 -0.9Z" fill="currentColor"></path></g><g transform="translate(14 644)"><path d="M3 -2.3C3.8 -1.4 4.3 -0.1 4 0.9C3.7 1.9 2.7 2.6 1.6 3C0.6 3.3 -0.5 3.3 -1.4 2.9C-2.3 2.5 -3.1 1.7 -3.1 0.9C-3.2 0 -2.6 -0.8 -2 -1.7C-1.4 -2.7 -0.7 -3.7 0.2 -3.9C1.1 -4 2.2 -3.3 3 -2.3Z" fill="currentColor"></path></g><g transform="translate(256 108)"><path d="M2.3 -1.8C2.8 -1.2 2.9 -0.3 2.6 0.5C2.4 1.3 1.8 1.9 1.1 2.4C0.3 2.8 -0.6 3 -1.5 2.8C-2.4 2.5 -3.2 1.7 -3.5 0.6C-3.9 -0.4 -3.8 -1.7 -3.2 -2.3C-2.5 -2.9 -1.3 -2.7 -0.2 -2.6C0.9 -2.4 1.8 -2.3 2.3 -1.8Z" fill="currentColor"></path></g><g transform="translate(371 536)"><path d="M3.8 -2.6C5.1 -1.4 6.4 0.2 6.2 1.7C6.1 3.2 4.5 4.6 2.7 5.3C0.9 6.1 -1.1 6.2 -2.4 5.4C-3.7 4.6 -4.3 2.9 -4.8 1C-5.2 -0.8 -5.5 -2.7 -4.7 -3.8C-3.8 -4.9 -1.9 -5.3 -0.3 -5C1.2 -4.7 2.5 -3.9 3.8 -2.6Z" fill="currentColor"></path></g><g transform="translate(407 689)"><path d="M1.8 -1.4C2.3 -0.9 2.5 -0.1 2.3 0.5C2.1 1.1 1.6 1.6 1 1.7C0.4 1.8 -0.1 1.6 -0.7 1.4C-1.2 1.1 -1.8 0.8 -2 0.3C-2.2 -0.2 -2.1 -0.9 -1.7 -1.4C-1.4 -2 -0.7 -2.3 0 -2.3C0.7 -2.3 1.4 -2 1.8 -1.4Z" fill="currentColor"></path></g><g transform="translate(397 378)"><path d="M2.1 -1.6C2.7 -1.1 2.9 -0.2 2.8 0.9C2.7 1.9 2.4 3.1 1.6 3.6C0.8 4 -0.5 3.8 -1.4 3.2C-2.4 2.7 -3 1.8 -3.3 0.7C-3.5 -0.3 -3.4 -1.4 -2.8 -2C-2.2 -2.6 -1.1 -2.6 -0.1 -2.5C0.8 -2.4 1.6 -2.2 2.1 -1.6Z" fill="currentColor"></path></g><g transform="translate(454 78)"><path d="M3.7 -3.5C4.5 -2 4.6 -0.5 4.5 1.5C4.4 3.4 4.1 5.7 2.7 6.9C1.3 8 -1.3 8 -3 6.9C-4.7 5.8 -5.5 3.6 -5.9 1.5C-6.3 -0.7 -6.3 -2.8 -5.2 -4.4C-4.1 -6 -2.1 -7 -0.3 -6.8C1.5 -6.5 3 -5 3.7 -3.5Z" fill="currentColor"></path></g><g transform="translate(16 793)"><path d="M1.2 -0.9C1.5 -0.5 1.9 0 1.8 0.5C1.8 0.9 1.3 1.3 0.8 1.6C0.2 1.9 -0.4 2 -0.9 1.8C-1.5 1.6 -1.9 1.1 -2 0.5C-2.2 -0.2 -2.1 -0.8 -1.7 -1.3C-1.3 -1.7 -0.6 -1.9 -0.1 -1.8C0.4 -1.7 0.8 -1.3 1.2 -0.9Z" fill="currentColor"></path></g><g transform="translate(133 314)"><path d="M3.3 -2.8C4.1 -1.8 4.2 -0.4 4.1 1.2C3.9 2.8 3.5 4.5 2.4 5C1.4 5.5 -0.3 4.8 -1.6 3.9C-2.8 3 -3.7 2 -4 0.9C-4.3 -0.2 -3.9 -1.5 -3.1 -2.5C-2.3 -3.5 -1.2 -4.3 0.1 -4.3C1.3 -4.4 2.6 -3.8 3.3 -2.8Z" fill="currentColor"></path></g><g transform="translate(502 927)"><path d="M1.7 -1.1C2.2 -0.6 2.8 0.1 2.7 0.6C2.5 1.2 1.7 1.6 1 1.7C0.3 1.9 -0.3 1.9 -0.9 1.7C-1.5 1.5 -2.2 1 -2.5 0.3C-2.9 -0.4 -3 -1.4 -2.5 -1.9C-2.1 -2.4 -1 -2.4 -0.2 -2.2C0.5 -2 1.1 -1.7 1.7 -1.1Z" fill="currentColor"></path></g><g transform="translate(3 381)"><path d="M1.4 -1.2C1.7 -0.8 1.8 -0.2 1.6 0.3C1.4 0.7 1 1 0.6 1.4C0.1 1.7 -0.5 1.9 -1 1.8C-1.4 1.7 -1.8 1.1 -1.8 0.5C-1.8 0 -1.5 -0.5 -1.2 -0.9C-0.8 -1.3 -0.4 -1.7 0.1 -1.8C0.6 -1.8 1.1 -1.6 1.4 -1.2Z" fill="currentColor"></path></g><g transform="translate(486 768)"><path d="M5.2 -4.1C6.7 -2.3 7.8 -0.1 7.6 2.1C7.4 4.4 5.9 6.8 3.9 7.4C2 8.1 -0.5 7.1 -3 6C-5.5 4.9 -8 3.6 -8.4 1.9C-8.7 0.2 -6.9 -1.9 -5.2 -3.8C-3.4 -5.7 -1.7 -7.3 0.1 -7.4C1.9 -7.5 3.7 -6 5.2 -4.1Z" fill="currentColor"></path></g><g transform="translate(512 348)"><path d="M3.2 -2.6C4.1 -1.4 4.7 -0.1 4.5 1.1C4.3 2.4 3.3 3.6 2 4.3C0.7 5 -1 5.2 -2 4.6C-3 3.9 -3.4 2.4 -3.7 1C-3.9 -0.5 -4 -1.9 -3.3 -3C-2.7 -4.1 -1.4 -5 -0.1 -4.9C1.1 -4.8 2.3 -3.8 3.2 -2.6Z" fill="currentColor"></path></g><g transform="translate(24 208)"><path d="M2.6 -1.9C3.2 -1.3 3.5 -0.2 3.1 0.5C2.8 1.2 1.8 1.5 1.1 1.7C0.3 1.9 -0.3 1.9 -0.9 1.7C-1.4 1.4 -1.9 1 -2.1 0.4C-2.3 -0.2 -2.2 -1 -1.8 -1.5C-1.4 -2.1 -0.7 -2.6 0.1 -2.7C1 -2.8 1.9 -2.5 2.6 -1.9Z" fill="currentColor"></path></g><g transform="translate(26 594)"><path d="M5.2 -3.7C6.7 -2.3 7.9 -0.1 7.6 2.1C7.4 4.3 5.8 6.6 3.8 7.4C1.7 8.2 -0.8 7.5 -2.9 6.4C-5 5.2 -6.8 3.6 -7.4 1.5C-8 -0.6 -7.5 -3.1 -6.1 -4.4C-4.7 -5.8 -2.3 -6 -0.2 -5.8C1.9 -5.6 3.8 -5.1 5.2 -3.7Z" fill="currentColor"></path></g><g transform="translate(367 213)"><path d="M1.3 -1.1C1.6 -0.7 1.6 -0.2 1.5 0.3C1.3 0.8 1.1 1.2 0.7 1.3C0.3 1.4 -0.1 1.2 -0.4 1C-0.7 0.8 -1 0.5 -1 0.2C-1.1 -0.1 -1 -0.4 -0.8 -0.7C-0.6 -1 -0.3 -1.4 0.1 -1.5C0.5 -1.6 1 -1.4 1.3 -1.1Z" fill="currentColor"></path></g><g transform="translate(326 491)"><path d="M3.4 -2.6C4.3 -1.7 4.7 -0.2 4.4 0.9C4.1 2.1 3 3 1.8 3.4C0.6 3.9 -0.6 3.9 -1.7 3.4C-2.9 2.9 -3.9 2 -4.3 0.8C-4.7 -0.4 -4.6 -2 -3.8 -2.9C-2.9 -3.8 -1.5 -4.1 -0.1 -4C1.3 -4 2.6 -3.5 3.4 -2.6Z" fill="currentColor"></path></g><g transform="translate(304 284)"><path d="M2.1 -1.7C2.6 -1.1 2.7 -0.2 2.5 0.4C2.2 1.1 1.6 1.5 0.9 1.8C0.3 2 -0.3 2 -1.1 1.8C-1.9 1.6 -2.8 1.2 -3.1 0.5C-3.5 -0.2 -3.2 -1.3 -2.6 -1.9C-2 -2.5 -1 -2.6 -0.1 -2.5C0.8 -2.5 1.7 -2.2 2.1 -1.7Z" fill="currentColor"></path></g><g transform="translate(104 885)"><path d="M3.1 -2.6C4 -1.4 4.6 -0.1 4.3 0.9C4 1.9 2.8 2.5 1.5 3.2C0.2 3.9 -1.2 4.5 -2 4.1C-2.8 3.7 -3.1 2.3 -3.2 1C-3.3 -0.3 -3.2 -1.4 -2.6 -2.5C-2 -3.6 -1 -4.7 0.1 -4.8C1.1 -4.8 2.3 -3.8 3.1 -2.6Z" fill="currentColor"></path></g><g transform="translate(124 945)"><path d="M1.1 -0.8C1.3 -0.6 1.2 -0.2 1.1 0.2C1 0.5 0.7 0.8 0.4 1C0.1 1.2 -0.3 1.3 -0.5 1.2C-0.8 1 -0.9 0.6 -1 0.3C-1 -0.1 -1 -0.5 -0.8 -0.7C-0.7 -0.9 -0.3 -1 0 -1C0.4 -1 0.9 -1 1.1 -0.8Z" fill="currentColor"></path></g><g transform="translate(73 542)"><path d="M2.9 -2.1C3.7 -1.3 4.2 -0.1 4 0.9C3.8 2 2.8 2.9 1.7 3.3C0.6 3.8 -0.6 3.7 -1.6 3.3C-2.5 2.8 -3.3 1.9 -3.4 0.9C-3.5 0 -3 -1 -2.3 -1.8C-1.6 -2.5 -0.8 -3.1 0.1 -3.2C1 -3.3 2.1 -2.9 2.9 -2.1Z" fill="currentColor"></path></g><g transform="translate(136 844)"><path d="M1.3 -1.2C1.6 -0.7 1.7 -0.1 1.6 0.3C1.4 0.8 1.1 1.2 0.6 1.5C0.2 1.7 -0.4 1.9 -1 1.7C-1.6 1.6 -2.3 1.1 -2.4 0.6C-2.5 0 -2.1 -0.7 -1.6 -1.2C-1.1 -1.8 -0.5 -2.2 0 -2.2C0.5 -2.2 1 -1.7 1.3 -1.2Z" fill="currentColor"></path></g><g transform="translate(98 434)"><path d="M1.1 -1C1.3 -0.7 1.2 -0.2 1.1 0.3C1 0.7 0.9 1.1 0.6 1.3C0.3 1.5 -0.2 1.4 -0.5 1.2C-0.9 1 -1.2 0.6 -1.3 0.2C-1.4 -0.2 -1.5 -0.7 -1.2 -1C-1 -1.4 -0.5 -1.5 0 -1.5C0.5 -1.5 0.9 -1.3 1.1 -1Z" fill="currentColor"></path></g><g transform="translate(30 556)"><path d="M1.3 -1.2C1.6 -0.6 1.8 -0.1 1.7 0.4C1.6 0.9 1.2 1.3 0.8 1.5C0.3 1.8 -0.3 1.7 -0.8 1.5C-1.4 1.3 -1.9 1 -2.2 0.4C-2.4 -0.2 -2.3 -1 -1.8 -1.5C-1.4 -2.1 -0.7 -2.5 -0.1 -2.4C0.5 -2.4 1 -1.8 1.3 -1.2Z" fill="currentColor"></path></g><g transform="translate(109 511)"><path d="M2.2 -1.6C3 -0.9 3.7 0.1 3.5 0.8C3.4 1.6 2.4 2.2 1.4 2.5C0.5 2.8 -0.4 2.8 -1.3 2.5C-2.3 2.2 -3.2 1.6 -3.3 0.8C-3.4 0.1 -2.7 -0.8 -2.1 -1.5C-1.4 -2.3 -0.7 -2.9 0 -2.9C0.7 -2.9 1.5 -2.4 2.2 -1.6Z" fill="currentColor"></path></g><g transform="translate(246 896)"><path d="M1.8 -1.5C2.1 -1.1 1.9 -0.3 1.7 0.2C1.4 0.8 1.1 1.2 0.6 1.6C0.1 1.9 -0.6 2.2 -1.1 2C-1.6 1.9 -1.9 1.2 -2 0.5C-2.1 -0.1 -1.9 -0.8 -1.6 -1.3C-1.2 -1.8 -0.6 -2.2 0.1 -2.2C0.7 -2.3 1.5 -2 1.8 -1.5Z" fill="currentColor"></path></g></g></svg>
