<svg id="visual" viewBox="0 0 540 960" width="100%" height="100%" xmlns="http://www.w3.org/2000/svg" xmlns:xlink="http://www.w3.org/1999/xlink" version="1.1"><path d="M0 49L30 78L60 97L90 87L120 78L150 68L180 59L210 87L240 87L270 78L300 87L330 68L360 49L390 87L420 68L450 68L480 97L510 49L540 68L540 0L510 0L480 0L450 0L420 0L390 0L360 0L330 0L300 0L270 0L240 0L210 0L180 0L150 0L120 0L90 0L60 0L30 0L0 0Z" fill="#fcaf3c"></path><path d="M0 183L30 212L60 231L90 222L120 193L150 164L180 155L210 222L240 174L270 193L300 174L330 174L360 222L390 222L420 164L450 183L480 193L510 155L540 164L540 66L510 47L480 95L450 66L420 66L390 85L360 47L330 66L300 85L270 76L240 85L210 85L180 57L150 66L120 76L90 85L60 95L30 76L0 47Z" fill="#fd9d3d"></path><path d="M0 279L30 308L60 318L90 347L120 279L150 299L180 231L210 327L240 251L270 318L300 270L330 299L360 308L390 347L420 279L450 289L480 299L510 260L540 251L540 162L510 153L480 191L450 181L420 162L390 220L360 220L330 172L300 172L270 191L240 172L210 220L180 153L150 162L120 191L90 220L60 229L30 210L0 181Z" fill="#fc8a40"></path><path d="M0 327L30 347L60 356L90 385L120 337L150 347L180 299L210 385L240 299L270 375L300 327L330 347L360 375L390 404L420 347L450 327L480 337L510 299L540 299L540 249L510 258L480 297L450 287L420 277L390 345L360 306L330 297L300 268L270 316L240 249L210 325L180 229L150 297L120 277L90 345L60 316L30 306L0 277Z" fill="#f87846"></path><path d="M0 385L30 414L60 404L90 452L120 404L150 404L180 375L210 462L240 375L270 423L300 385L330 395L360 452L390 471L420 423L450 375L480 385L510 356L540 375L540 297L510 297L480 335L450 325L420 345L390 402L360 373L330 345L300 325L270 373L240 297L210 383L180 297L150 345L120 335L90 383L60 354L30 345L0 325Z" fill="#f3664c"></path><path d="M0 452L30 481L60 462L90 519L120 443L150 443L180 443L210 519L240 443L270 481L300 443L330 452L360 491L390 529L420 481L450 433L480 433L510 414L540 414L540 373L510 354L480 383L450 373L420 421L390 469L360 450L330 393L300 383L270 421L240 373L210 460L180 373L150 402L120 402L90 450L60 402L30 412L0 383Z" fill="#eb5453"></path><path d="M0 587L30 683L60 625L90 740L120 654L150 635L180 702L210 711L240 587L270 711L300 663L330 702L360 721L390 721L420 692L450 596L480 663L510 644L540 615L540 412L510 412L480 431L450 431L420 479L390 527L360 489L330 450L300 441L270 479L240 441L210 517L180 441L150 441L120 441L90 517L60 460L30 479L0 450Z" fill="#e1435a"></path><path d="M0 855L30 865L60 894L90 894L120 884L150 884L180 875L210 884L240 865L270 875L300 865L330 884L360 884L390 894L420 875L450 865L480 855L510 855L540 903L540 613L510 642L480 661L450 594L420 690L390 719L360 719L330 700L300 661L270 709L240 585L210 709L180 700L150 633L120 652L90 738L60 623L30 681L0 585Z" fill="#d53261"></path><path d="M0 961L30 961L60 961L90 961L120 961L150 961L180 961L210 961L240 961L270 961L300 961L330 961L360 961L390 961L420 961L450 961L480 961L510 961L540 961L540 901L510 853L480 853L450 863L420 873L390 892L360 882L330 882L300 863L270 873L240 863L210 882L180 873L150 882L120 882L90 892L60 892L30 863L0 853Z" fill="#c62368"></path></svg>
