<svg width="120" height="40" version="1.1" xmlns="http://www.w3.org/2000/svg" xmlns:xlink="http://www.w3.org/1999/xlink" x="0px" y="0px" viewBox="420 219.9 1452.5 354.1" enable-background="new 420 219.9 1452.5 354.1" xml:space="preserve">
	<g transform="matrix(1.25,0,0,-1.25,0,354.0625)">
		<g transform="scale(0.1,0.1)">
			<path fill="#FF6357" d="M3360-1759.5h11620.3V1073H3360V-1759.5z">
			</path>
			<path fill="#FFFFFF" d="M11298.8,135.5l-14-0.7l-13.8-0.6l-13.5-1.7l-13.3-2.4l-12.7-3.2l-13.6-3.8l-12-4.2l-12.2-4.8
			l-12.1-5.6l-11.5-5.9l-11.5-6.8l-11.1-7.4l-10.9-7.1l-10.2-8.1l-9.8-8.6l-9-9l-9-9.8l-8.4-9.9l-8.7-10.3l-7.3-10.3l-7.4-10.9
			l-6.7-11.7l-5.5-11.4L11049-31l-4.6-12.2l-4.3-12.7l-3.9-12.7l-2.7-13.8l-2.7-13.2l-1.9-13.3l-1.1-13.9l-0.5-13.8v-403l0.5-13.9
			l1.1-13.9l1.9-13.4l2.7-13.2l2.7-13.7l3.9-12.8l4.3-12l4.6-12.8l5.5-12.4l5.5-11.4l6.7-11.1l7.4-11.7l7.3-10.3l8.7-10.2l8.4-9.9
			l9-9.6l9-9.5l9.8-8.2l10.2-8l10.9-7.3l11.1-7.2l11.5-6.9l11.5-5.9l12.1-5.4l12.2-5l12-4.2l13.6-3.9l12.7-3l13.3-2.4l13.5-1.8
			l13.8-0.5l14-0.8h862.4l14,0.8l13.8,0.5l13.6,1.8l13.4,2.4l12.8,3l12.6,3.9l13,4.2l12,5l12.1,5.4l11.7,5.9l11.5,6.9l11.1,7.2
			l10.8,7.3l9.6,8l10.1,8.2l9.2,9.5l9.4,9.6l8.4,9.9l7.7,10.2l7.9,10.3l7,11.7l6.4,11.1l6.4,11.4l5.1,12.4l5,12.8l4.3,12l3.5,12.8
			l3.3,13.7l2.3,13.2l1.8,13.4l1.3,13.9v430.7l-1.3,13.9l-1.8,13.3l-2.3,13.2l-3.3,13.8l-3.5,12.7l-4.3,12.7l-5,12.2l-5.1,12.4
			l-6.4,11.4l-6.4,11.7l-7,10.9l-7.9,10.3l-7.7,10.3l-8.4,9.9l-9.4,9.8l-9.2,9l-10.1,8.6l-9.6,8.1l-10.8,7.1l-11.1,7.4l-11.5,6.8
			l-11.7,5.9l-12.1,5.6l-12,4.8l-13,4.2l-12.6,3.8l-12.8,3.2l-13.4,2.4l-13.6,1.7l-13.8,0.6l-14,0.7L11298.8,135.5L11298.8,135.5z
			 M12029.4-703.1h-598.9V27h598.9V-703.1">
			</path>
			<path fill="#FFFFFF" d="M13761.9,126.2l13.4-0.5l13.8-1.3l13.3-1.8l13.5-2.4l13.4-3.1l12.8-3.9l12.6-3.8l12.1-5.2
			l12.4-5.3l11.7-5.8l11.3-6.3l10.9-7.3l10.4-7.5l10.4-8.6l9.5-8.2l10-9.3l8.9-9l8.5-9.9l8.1-10.2l7.1-11.2l7.4-11.2l6.8-11.3
			l6-11.7l5.5-12.2l4.7-12.2l4.3-12.5l3.7-13.1l3-12.8l2.3-13.2l2.2-13.7l0.3-13.9l0.6-14.3V-812h-233.9l-11,0.8l-10.3,1l-10.2,1.3
			l-9.7,1.6l-9.9,2.1l-8.9,2.3l-8.6,3.3l-8.6,2.9l-8,3.1l-7.2,3.9l-7.2,3.9l-7.3,4.3l-6.4,5l-6,4.9l-5.9,5.4l-5.7,5.4l-4.7,5.8l-5,6
			l-4.1,6.7l-4.5,7.1l-3.4,6.3l-3.2,7.1l-2.8,7.4l-2.5,8.2l-2.4,8l-1.8,7.7l-1.4,8.1l-1.1,8.4l-1.2,9l-0.5,8.6V17.2h-598.1V-812
			h-234.2l-11.1,0.8l-10.1,1l-10.2,1.3l-10,1.6l-9.5,2.1l-9,2.3l-8.6,3.3l-8.6,2.9l-8.1,3.1l-7.6,3.9l-6.9,3.9l-7.3,4.3l-6.2,5
			l-6.7,4.9l-5.5,5.4l-5.3,5.4l-4.8,5.8l-5.2,6l-3.9,6.7l-4.2,7.1l-3.8,6.3l-3.1,7.1l-3.2,7.4l-2.3,8.2l-2.5,8l-1.5,7.7l-1.4,8.6
			l-1.2,8l-1.4,9l-0.3,8.6v782.3L13761.9,126.2">
			</path>
			<path fill="#FFFFFF" d="M8875.8-645.5v-9.4l0.7-8.3l0.6-9.2l1.4-8.4l1.8-8.6l1.8-8.1l2.1-7.8l2.6-8.1l3.1-7.3l2.9-7.2
			l4-6.7l3.9-7l4.4-6.4l4-6l5.7-6.4l5.5-5.1l5.2-5.7l6.4-4.9l6.4-4.8l6.9-4.3l6.9-4.4l8.1-3.7l7.8-3.6l8.1-2.9l8.9-2.6l9.4-2.5
			l8.9-2.6l10.3-1.6l9.8-1.3l11-1l10.7-0.8h203.9v665.5l-0.5,14.3l-0.8,13.9l-1.7,13.7l-2.5,13.2l-3.2,12.8l-3.2,13.4l-4.8,12.1
			l-4.6,12.2l-5.5,12.2l-6.1,11.5l-6.8,11.4l-7.3,11.2l-7.1,11.2L9187,27l-8.2,9.9l-9,9.2l-10,9.2l-9.5,8.2l-10.5,8.6l-10.5,7.5
			l-10.8,7.1l-11.5,6.3l-11.5,6l-12,5.3l-12.4,5.2l-12.7,3.8l-13,3.8l-13.1,3.2l-13.3,2.4l-13.6,1.8l-14,1.3l-13.3,0.5H7465.3
			v-781.1l0.7-8.3l0.5-9.2l1.2-8.4l1.7-8.6l1.9-8.1l1.9-7.8l3.3-8.1l1.9-7.3l3.8-7.2l3.8-6.7l3.6-7l4.2-6.4l5-6l4.6-6.4l5.7-5.1
			l5.9-5.7l5.9-4.9l6.7-4.8l7-4.3l7.3-4.4l7.1-3.7l8.6-3.6l7.9-2.9l9.3-2.6l8.9-2.5l9.4-2.6l9.5-1.6l10-1.3l11.2-0.5l11.2-0.5
			l10.9-0.8h191.7V17.3h345.2v-672.1l0.2-8.3l1.4-9.2l1-8.4l1.3-8.6l2-8.1l2.4-7.8l2.1-8.1l3.1-7.3l3.3-7.2l3.3-6.7l4.5-7l4-6.4
			l4.9-6l4.9-6.4l5.7-5.1l5.9-5.7l6-4.9l5.9-4.8l7.6-4.3l7.3-4.4l7.2-3.7l7.8-3.6l8.6-2.9l8.4-2.6l9.2-2.5l9.5-2.6l9.9-1.6l10.6-1.3
			l10.2-1h10.7l11.8-0.8H8531V17.3h344.8L8875.8-645.5">
			</path>
			<path fill="#FFFFFF" d="M9848-703.1V27h585.3v-159.7h416.2l-0.5,13.2l-1.2,13.6l-1.8,13.2l-2.7,13.8l-3,12.5
			l-3.3,12.7l-4.5,12.4l-4.8,12.4l-5.6,12l-6,11.4l-6.8,11.2l-6.4,11.2l-8.1,10.2l-8.1,10.3l-8.2,9.9l-9.2,8.9l-9.9,9.4l-9.4,8.4
			l-10.7,7.8l-10.2,7.1l-11.4,7.3l-11.2,6.4l-11.4,5.9l-12.1,5.5l-12.1,4.9l-12.9,4.2l-12.8,3.8l-13.2,3.2l-13,2.3l-13.1,1.9
			l-14,0.5l-14.1,0.7h-861.7l-14.3-0.7l-13.7-0.5l-13.7-1.9l-13.1-2.3l-13.6-3.2l-12.8-3.8l-12.5-4.2l-12.2-4.9l-12.4-5.5l-11.4-5.9
			l-11.4-6.9l-11-7.3l-10.6-7.1l-10.1-8l-9.8-8.7l-9.8-9l-9-9.8l-8.7-9.9l-7.7-10.3l-7.1-10.3l-7.6-11.1l-6.5-11.5l-6.3-11.4
			l-5.2-12.4l-5-12.2l-4.3-12.7l-3.3-12.8l-3.1-13.7l-2.6-13.2l-1.8-13.3l-0.8-13.9l-0.4-13.8v-403l0.4-13.9l0.8-13.9l1.8-13.4
			l2.6-13.2l3.1-13.7l3.3-12.8l4.3-12l5-12.7l5.2-12.5l6.3-11.4l6.5-11.1l7.6-11.7l7.1-10.3l7.7-10.2l8.7-9.9l9-9.8l9.8-9.4l9.8-8.2
			l10.1-8l10.6-7.3l11-7.2l11.4-6.8l11.4-6.1l12.4-5.4l12.2-5l12.5-4.2l12.8-3.8l13.6-3.1l13.1-2.4l13.7-1.8l13.7-0.5l14.3-0.8
			h861.7l14.2,0.8l14,1l13.1,1.3l13,2.4l13.2,3.1l12.8,3.8l12.8,4.2l12.1,5l12.1,5.4l11.4,6.1l11.2,6.1l11.4,7.5l10.2,7.1l10.7,7.7
			l9.4,8.6l9.9,9.4l9.2,8.9l8.2,9.9l8.1,10.3l8.1,10.3l6.4,11.2l6.8,10.9l6,11.7l5.6,11.8l4.8,12.5l4.5,12.4l3.3,12.4l3,13l2.7,13.4
			l1.8,13.4l1.2,13.1l0.5,14.3h-416.2v-159.9L9848-703.1">
			</path>
			<path fill="#FFFFFF" d="M6892.5-293.1h-606.4V27h606.4L6892.5-293.1L6892.5-293.1z M7287.8-132.7v13.2l-1.3,13.6
			l-1.8,13.2l-2.5,13.4l-3,13.2l-3.8,12.4l-4,12.4l-5,12.4l-5.5,12l-6,11.4l-6.7,11.2l-7.4,11.2l-7.4,10.2l-8.6,10.3l-8.3,9.9
			l-9.2,8.9l-9.2,9.4l-10,8.4l-10.1,7.8l-11.1,7.1l-10.7,7.3l-11.7,6.4l-11.4,5.9l-11.9,5.5l-12.4,4.9l-12.6,4.2l-12.4,3.8
			l-13.5,3.2l-13.3,2.3l-13.3,1.8l-13.3,0.9l-14,0.3h-862.8l-13.6-0.3l-13.5-0.9l-14.2-1.8l-13.2-2.3l-12.7-3.2l-13-3.8l-12.6-4.2
			l-12.1-4.9l-12.4-5.5l-11.4-5.9l-11.5-6.9l-10.7-7.3l-11.1-7.1l-10-8.1l-10.1-8.6l-9.2-9l-9.2-9.8L5945,36l-7.7-10.3l-8.1-10.3
			l-7.5-11.1l-5.7-11.5l-6.2-11.4L5904-31l-4.6-12.2l-4.4-12.7l-3.3-12.8l-3.4-13.7l-2.3-13.2l-1.9-13.2l-1-14v-430.8l1-13.8
			l1.9-13.4l2.3-13.2l3.4-13.7l3.3-12.7l4.4-12l4.6-13l5.7-12.4l6.2-11.3l5.7-11.2l7.5-11.7l8.1-10.3l7.7-10.2l8.4-9.9l9.2-9.8
			l9.2-9.4l10.1-8.2l10-8l11.1-7.3l10.7-7.1l11.5-7l11.4-5.9l12.4-5.4l12.1-5l12.6-4.2l13-3.9l12.7-3l13.2-2.3l14.2-1.9l13.5-0.5
			l13.6-0.8h830.5l14.3,0.8l13.1,1l13.6,1.4l13.2,2.3l12.7,3l12.9,3.9l12.8,4.2l11.9,5l12.4,5.4l11.4,5.9l11.7,6.2l11.1,7.5
			l10.7,7.1l9.9,7.7l10.5,8.7l9,9.3l9.1,9l8.6,9.8l8.3,10.3l7.4,10.3l7.1,11.1l6.9,11.1l6.4,11.7l5,11.8l5.1,12.5l4.2,12.4l3.6,12.4
			l3,13l2.5,13.3l1.9,13.6l0.7,13.1l0.2,14.3h-416.3v-159.9h-552.8v301.5h730.5l14,0.6l13.3,0.5l13.3,1.8l13.3,2.4l13.6,3.3
			l12.4,3.3l12.6,4.4l12.4,4.6l11.9,5.6l11.4,6.3l11.7,6.2l10.7,7.1l11.1,7.4l10.1,8l10,8.5l9.2,9l9.2,9.2l8.3,9.9l8.6,10.5
			l7.4,10.2l7.4,11.2l6.7,10.9l6,11.2l5.5,12.5l5,12.1l4,12.1l3.8,12.8l3,13l2.5,13.2l1.8,13.6l1.3,13.2L7287.8-132.7">
			</path>
			<path fill="#FFFFFF" d="M4558.6,135.5l-12.7-0.7l-12.9-0.6l-12.9-1.7l-12.2-1.7l-12-3.5l-12.2-3.6l-11.4-3.4
			l-11.2-4.5l-11.4-5.3l-10.2-5.7l-10.9-5.9l-10.5-6.4l-9.8-7l-9.2-7.3l-8.9-8.6l-9.4-7.8l-7.7-9.2l-7.9-9.3l-7.8-9.5l-6.7-9.9
			l-6.8-10.6l-6.1-10.8l-5.6-11.1l-4.4-10.8l-5.2-11.7l-3.6-12.2l-3.8-12.1l-3.1-13l-1.4-12.1l-1.9-13.3l-0.7-13l-0.6-13.4l0.6-13.1
			l0.7-13.8l1.9-13.2l1.4-12.8l3.1-12.6l3.8-12.4l3.6-12.2l5.2-11.8l4.4-11.4l5.6-10.8l6.1-11.1l6.8-10.3l6.7-10.6l7.8-9.5l7.9-9.3
			l7.7-8.6l9.4-8.6l8.9-7.7l9.2-7.1l9.8-7.9l10.5-6.4l10.9-5.9l10.2-5.7l11.4-4.9l11.2-4.6l11.4-3.8l12.2-3.7l12-2.3l12.2-2.7
			l12.9-1.2l12.9-1.1H5215l10.3-0.7l9.8-1.9l10.4-2.3l9.2-3.6l9.2-4.8l8.4-4.6l7.8-5.8l7.3-7l6.5-7.2l6.1-7.7l5.1-8.6l4.8-9.3l3-9.8
			l3-9.9l1.2-10.1l0.5-10.5v-120.8l-0.5-10.3l-1.2-10.1l-3-9.8l-3-8.9l-4.3-9.4l-5.6-8.1l-6.1-8l-6.5-7.1l-7.3-6.1l-7.8-6.4
			l-8.4-4.6l-9.2-4.4l-9.2-3.3l-9.9-2.6l-10.2-2l-10.3-0.5l-491.4,0.5v159.9h-416.2l0.6-14.3l0.7-13.1l1.9-13.6l1.9-13.3l3.6-13
			l3.3-12.2l4.3-12.4l5-12.6l5.7-11.7l6-11.8l6.4-11.1l7.6-11.1l7.3-10.3l8.7-10.2l8.3-10l8.9-8.9l8.9-9.4l10.7-8.6l9.5-7.7
			l10.9-7.1l11.2-7.5l11.4-6.2l11.7-5.9l11.9-5.4l12.4-5l12.8-4.2l12.6-3.9l12.8-3l13.2-2.4l13.2-1.3l13.7-1l13.9-0.8h829.3l15,0.8
			l15.7,1l15.2,1.3l14.8,2.4l15.2,3l14.5,3.9l14,4.2l14,5l13.3,5.4l12.9,5.9l12.6,6.9l13.1,6.8l11.6,7.7l11.7,8l11.2,8.2l10.1,9.5
			l10.6,8.9l9.4,9.8l9.2,10.3l8.7,10.6l7.7,10.8l7.1,11.9l6.9,11.3l6,12.2l5.5,12.4l5.2,12.6l3.8,12.8l3.8,13l2.5,13.2l1.8,13.7
			l1.2,13.1l0.7,14.3l-0.7,13.7l-1.2,13.7l-1.8,14l-2.5,12.7l-3.8,13.2l-3.8,13l-5.2,12.4l-5.5,12.7l-6,11.5l-6.9,11.7l-7.1,11.7
			l-7.7,10.5l-8.7,10.6l-9.2,10.4l-9.4,9.9l-10.6,9.8l-10.1,8.6l-11.2,8.6l-11.7,8.6l-11.6,7.4l-13.1,7.2l-12.6,6l-12.9,5.8
			l-13.3,5.7l-14,5l-14,4.3l-14.5,3.7l-15.2,2.9l-14.8,2.6l-15.2,2l-15.7,0.5l-15,0.6h-603l-9.2,0.7l-9.1,0.7l-8.6,2.7l-9,3.3
			l-9,3.3l-8.6,4.9l-7.9,5.3l-7.4,6.4l-7.2,7.4l-6.2,7.7l-6.2,8l-4.6,9l-3.8,9.9l-3.2,10.2l-1.1,5.5l-0.6,5.6l-0.5,6.1v111l0.5,8.4
			l1.7,8.6l2.7,8.8l3.3,8.4l4.6,7.4l5.2,8l6.4,6.4l7.1,7l7.3,5.3l7.9,5.5l8.3,4.3l10,4.2l9.2,3.2l10.3,1.7l9.8,1.9l10.6,0.7h464.7
			V-109h415.4l-2.3,12.8l-1.8,12.1l-2.9,12.1l-3.1,12.1l-3.6,12.4l-4.5,11.4l-4.6,11.5l-5.6,11.2l-5.9,10.8L5647,8.2l-6.7,10.3
			l-7,9.8l-8.1,9.3l-8.1,9.8l-8.6,8.3l-8.9,8.4l-8.9,7.9l-10,8l-10,7.1l-10.7,6.8l-10.2,6.3l-10.8,5.9l-11.1,5.6l-11.4,4.9
			l-11.7,4.4l-12.1,3.4l-12.1,3l-12.1,3.5l-12.9,1.7l-12.9,1.7l-12.6,0.6l-13.3,0.7L4558.6,135.5">
			</path>
		</g>
	</g>
</svg>
